<?xml version="1.0" standalone="no"?>
<!DOCTYPE svg PUBLIC "-//W3C//DTD SVG 20010904//EN"
 "http://www.w3.org/TR/2001/REC-SVG-20010904/DTD/svg10.dtd">
<svg version="1.0" xmlns="http://www.w3.org/2000/svg"
 width="300.000000pt" height="240.000000pt" viewBox="0 0 300.000000 240.000000"
 preserveAspectRatio="xMidYMid meet">
<metadata>
Created by potrace 1.10, written by Peter Selinger 2001-2011
</metadata>
<g transform="translate(0.000000,240.000000) scale(0.100000,-0.100000)"
fill="#000000" stroke="none">
<path d="M1395 1959 c-192 -30 -372 -131 -487 -273 -63 -78 -122 -193 -149
-292 -32 -111 -32 -277 0 -388 75 -269 284 -477 550 -548 105 -28 277 -28 382
0 136 37 316 144 359 215 35 57 21 126 -32 165 -12 9 -18 26 -18 51 0 60 -22
77 -155 121 -65 22 -125 40 -132 40 -8 0 -36 -20 -62 -45 -26 -25 -54 -45 -61
-45 -7 0 -40 14 -74 32 -82 43 -182 145 -228 234 l-37 71 44 43 c25 24 48 52
51 62 3 10 -13 75 -36 144 -49 147 -62 160 -142 150 -97 -13 -133 -50 -157
-164 -39 -187 38 -371 244 -577 122 -122 221 -188 346 -232 63 -22 86 -25 155
-20 75 4 124 18 124 35 -1 27 -18 32 -70 21 -92 -20 -162 -7 -275 50 -183 93
-334 245 -428 429 -51 102 -52 106 -52 190 0 157 35 213 132 216 l36 1 39
-115 39 -115 -41 -38 c-65 -62 -68 -78 -23 -167 70 -138 261 -300 354 -300 26
0 43 10 79 45 l46 45 114 -38 115 -39 5 -46 c4 -35 14 -55 38 -80 54 -56 43
-91 -50 -163 -77 -58 -184 -109 -275 -130 -88 -21 -239 -21 -328 0 -254 61
-463 268 -531 526 -25 96 -23 254 5 355 70 250 262 441 510 506 97 26 249 28
346 5 165 -39 338 -163 434 -309 136 -210 153 -510 40 -694 -22 -36 -18 -53
11 -53 23 0 70 85 94 171 62 221 -2 492 -161 681 -166 197 -444 305 -688 267z"/>
<path d="M1480 1645 c-21 -25 5 -42 68 -47 172 -12 333 -173 349 -348 6 -65
23 -91 48 -70 10 9 13 24 9 58 -16 134 -87 257 -189 330 -89 64 -258 109 -285
77z"/>
<path d="M1475 1470 c-11 -18 16 -40 49 -40 97 -1 206 -114 206 -214 0 -34 20
-53 42 -40 16 10 3 106 -20 150 -27 52 -87 108 -142 133 -48 22 -125 28 -135
11z"/>
</g>
</svg>
